/* XPM */
static char *a8535d6effcd4540e6213108b22b007flrI8rrUnl02LyYjj[] = {
/* columns rows colors chars-per-pixel */
"64 64 194 2 ",
"   c None",
".  c #391F77",
"X  c #242A7D",
"o  c #2C2A7D",
"O  c #332A7D",
"+  c #3D2C7C",
"@  c #35317E",
"#  c #3D327F",
"$  c #432B7B",
"%  c #4C2C7A",
"&  c #472374",
"*  c #532C7B",
"=  c #5B2D79",
"-  c #562A77",
";  c #43317E",
":  c #4A317E",
">  c #54327E",
",  c #5B327D",
"<  c #622D7A",
"1  c #6A2F7D",
"2  c #64347D",
"3  c #6A367E",
"4  c #6F397F",
"5  c #72327F",
"6  c #8B3C7E",
"7  c #9B3F7C",
"8  c #933D7A",
"9  c #96417F",
"0  c #9C427E",
"q  c #A2437E",
"w  c #2D2F80",
"e  c #3E2E82",
"r  c #2C3584",
"t  c #2E3A87",
"y  c #2D3C89",
"u  c #273482",
"i  c #353784",
"p  c #3C3683",
"a  c #323986",
"s  c #3A3887",
"d  c #32368C",
"f  c #343B8B",
"g  c #3B3A8B",
"h  c #3B3591",
"j  c #363B92",
"k  c #3C3A92",
"l  c #373490",
"z  c #4B2D81",
"x  c #442D82",
"c  c #532E80",
"v  c #5C2D81",
"b  c #443682",
"n  c #4B3581",
"m  c #43398C",
"M  c #4B398C",
"N  c #473887",
"B  c #533581",
"V  c #5C3581",
"C  c #543984",
"Z  c #5A3A85",
"A  c #53398C",
"S  c #5B3A8D",
"D  c #433694",
"F  c #493492",
"G  c #433993",
"H  c #4B3993",
"J  c #523795",
"K  c #533993",
"L  c #5B3992",
"P  c #672E81",
"I  c #633681",
"U  c #6A3782",
"Y  c #643981",
"T  c #6C3981",
"R  c #633A8D",
"E  c #6C3B8D",
"W  c #68368B",
"Q  c #733582",
"!  c #7A3681",
"~  c #743A82",
"^  c #7C3B82",
"/  c #743C8C",
"(  c #7B3D8A",
")  c #633A91",
"_  c #6A3A90",
"`  c #3E448D",
"'  c #4B468E",
"]  c #54468D",
"[  c #4A5396",
"{  c #5B5B9A",
"}  c #67488E",
"|  c #72428A",
" . c #73468A",
".. c #654D91",
"X. c #6C4993",
"o. c #6C539A",
"O. c #6C5A9A",
"+. c #665696",
"@. c #715594",
"#. c #79619E",
"$. c #5C65A1",
"%. c #746CA6",
"&. c #7865A2",
"*. c #7878AD",
"=. c #7B7EB0",
"-. c #843D83",
";. c #893F85",
":. c #8B3E83",
">. c #813E88",
",. c #8F3F88",
"<. c #933F85",
"1. c #993F85",
"2. c #933F88",
"3. c #8F4083",
"4. c #8D4084",
"5. c #8D4082",
"6. c #874084",
"7. c #924082",
"8. c #954181",
"9. c #944181",
"0. c #994280",
"q. c #9E4380",
"w. c #9C4183",
"e. c #9D4188",
"r. c #974088",
"t. c #875C96",
"y. c #A14380",
"u. c #A34383",
"i. c #A24281",
"p. c #A54380",
"a. c #A44382",
"s. c #A64381",
"d. c #A54481",
"f. c #A14285",
"g. c #A54385",
"h. c #A64486",
"j. c #A34480",
"k. c #A04388",
"l. c #81649C",
"z. c #8164A2",
"x. c #876AA0",
"c. c #906CA0",
"v. c #9D6EA5",
"b. c #8A73A6",
"n. c #8C7AAC",
"m. c #8576AB",
"M. c #9B7CAB",
"N. c #9776AA",
"B. c #977DB1",
"V. c #A07BAD",
"C. c #9981AF",
"Z. c #8789B7",
"A. c #9483B1",
"S. c #9A83B3",
"D. c #9A8DB7",
"F. c #A583B3",
"G. c #A788B5",
"H. c #A996BD",
"J. c #B097BE",
"K. c #9D99C1",
"L. c #979BC2",
"P. c #AD98C2",
"I. c #B49DC1",
"U. c #ADA0C4",
"Y. c #ACA9CA",
"T. c #BBA4C5",
"R. c #B3AACC",
"E. c #B7A7CA",
"W. c #AFB2D0",
"Q. c #BDB5D2",
"!. c #C2B2CE",
"~. c #C3BBD6",
"^. c #C9BED6",
"/. c #C7C4DC",
"(. c #CCC4DB",
"). c #CCC4DA",
"_. c #D1C6DC",
"`. c #D4CADD",
"'. c #DACADE",
"]. c #CECCE0",
"[. c #D7CFE1",
"{. c #DDD3E4",
"}. c #D7D8E7",
"|. c #E4DCEA",
" X c #E1D8E7",
".X c #EBE4EE",
"XX c #E7E1EC",
"oX c #EDEBF3",
"OX c #E9E7F0",
"+X c #F1EEF4",
"@X c #F2F1F6",
"#X c #F6F4F9",
"$X c #FFFFFF",
"%X c #F8F6FA",
/* pixels */
"                                                                                                                                ",
"                                                    8 7 7 0 q q q q q q q q                                                     ",
"                                            6 <.9 9 9 0 0 q 0 q q q q q s.s.s.s.a.7                                             ",
"                                        -.:.:.<.8.9 0 9 0 0 q q q q q q q s.q s.s.s.a.a.                                        ",
"                                    >.>.;.;.;.,.9.9 8.0.9 q q q q q q d.q s.s.s.a.a.a.a.h.i.                                    ",
"                                / ( ( >.>.>.;.,.9.:.8.0.9 0 0 q 0 q q q q s.q s.d.a.a.a.a.g.h.i.                                ",
"                            W / / / / ( ( >.>.,.4.4.7.9.0.0.9 0 0 q q q q d.s.q d.d.a.a.g.g.g.g.g.1.                            ",
"                          R _ _ _ / / ( ( ( >.>.-.6.4.4.9.8.9 0 0 0 j.q q q s.s.q a.a.a.a.a.g.a.g.h.f.                          ",
"                        ) _ _ _ _ / / / ( | | >.>.>.>.6.4.9.8.8.9 0 0 q.0 q j.j.j.j.j.j.i.g.f.f.g.f.k.f.                        ",
"                      L ) ) _ ) _ E _ / / ( / ( >.>.>.6.4.4.4.9.0.0.0.q.q.0 0 j.q.j.j.j.i.f.d.f.f.g.f.k.k.                      ",
"                    L ) ) L ) ) _ _ _ E _ / ( ( ( ( >.6.>.4.4.4.9.8.8.0.0 0.q.0 q.q.q.j.i.i.i.f.f.f.f.f.k.k.                    ",
"                  L L L L ) ) ) ) _ E E / _ / / ( ( ( ( >.>.-.4.4.3.9.8.0.0.0.0 q.q.q.q.q.i.q.f.q.i.f.f.f.f.k.                  ",
"                J L J L L L L ) ) ) E ) E E / E / / / ( >.>.>.-.6.4.4.3.9.9 9.9 0.q.q.q.q.q.i.q.1.e.i.e.f.e.f.1.                ",
"              J J L J J L L L ) L R ) E E E E / / / / ( ( ( ( -.>.6.4.3.3.9.9 9 0.0.0.q.q.q.i.1.f.i.q.q.1.q.1.k.1.              ",
"            G J J L L L J L L ) ) ) ) R R E E E E / / / / ( ( >.^ -.4.;.3.9 4.9 8.9 0.0.0.0.q.q.e.q.e.q.e.e.e.e.e.:.            ",
"            J J J J J J L L L L L L R R ) R R E E E / / ~ ( Q V.v.! >.-.6.4.9 4.9.9.8.9 0.0.0.w.0 1.q.1.w.w.e.1.1.1.            ",
"          G J J J J J J L L L L L L S R ) R R E E E E ~ / ~ / .X'.5 ( -.6.6  .9 6.9 6.9 9 9 9 9 0.0.0.1.e.w.w.r.1.r.2.          ",
"          H H H H K ' J K K K L L L L S S R R R R E E E / I G.$X$Xv.5 -.^ | 9 9 9 6.9 9 9 9 9 9 0.1.w.0.r.9.9.r.1.1.2.          ",
"        D J H H H H H K J K K ] S L S L S R R R R R E E U | XX$X$X'.5 ^ | 6 9 ^ ^ 6.9 9 9 9 9 9 8.8.8.9.w.1.8.1.1.7.2.,.        ",
"        G D H G H K H K K K K L A L S S S S S R I R R R v G.$X$X$X$XV.5 | ^  .9 ^ 6.^ 9 9  .9 9 8.9.9.1.9.9.<.<.1.2.1.2.        ",
"      D G G J G H H H A K K A K K K K S S S S R R R R W | .X$X$X$X$X{.Q ~ ^ ^ ^ 6.^ ^ 9 6.9 6 6.:.9.9 3.9.9.<.<.<.<.2.,.;.      ",
"      D G G D J G H H H H H K A S A A S S S S S S R I c P.$X$X$X$X$X$XV.3 ^ ^ ^  .9 ^ ^ 6 6.6.9 3.9.3.3.3.<.9.<.<.<.<.,.2.      ",
"    k D D D D [ H H H H M K K H M S S A A S S S S R V X.oX$X$X$X$X$X$X X4 4 ^  .^ ^ 6.^ 6 6.^ 9 :.9 6.9 :.<.6 <.<.<.,.,.,.-.    ",
"    D D D D D D G H M H H M M K K M A A S A A S S S c P.$X$X$X$X$X$X$X$XG.3 4 4 ^ ^ 6.^ ^ ^ 6 9 :.:.6 4.:.<.9.:.<.:.:.;.,.-.    ",
"    D D G k G G G J [ D H M H A M K A A C S C S C c X.@X$X$X$X$X$X$X$X$X|./ Q ~ ^ ~ ^ ^ ^ 9 6  .9 4.6.^ :.:.:.:.:.:.,.:.;.>.    ",
"    k k G k G G G G D D M H M M M A M A A A A S S z E.$X$X$X$X{.|.$X$X$X$XG.< | ~ ~ ^ ^ ^ 4 ^ 6 ^ 4 9 9 6 6 :.:.:.-.:.,.;.;.    ",
"  j D D G G G G G G H G m M H M M M M A A A A A c o.@X$X$X$X$Xz.B.$X$X$X$XXX| 3  .4 ~ ^ ^ 6 ^ ~ ^ ^ 6 6.-.:.-.-.-.-.,.-.>.;.!   ",
"  k j j k k k G G G H G H m M M M A M M M A C A x R.$X$X$X$X_.c I |.$X$X$X$XJ.< 4 ~ ~ ~  .4 ~ 6 4 9 ^ 6 ^ 6 6 -.-.-.-.-.>.;.(   ",
"  D k k k k k G G G m m M G G M M M M M M C A z o.%X$X$X$X$X&.v * S.$X$X$X$X.X .3 4 ~  .^ 4 ^ ^ ^ ^ ^ 9 6 ^ -.-.-.-.-.-.-.-.!   ",
"  j k k k D k D G G G m m m M m M M M M M M M x Q.$X$X$X$X).c Z V Z {.$X$X$X$XJ., 4 4 4 4 ^ 4 ^ ~ ^ ^ 4 -.^ ^ -.-.-.-.-.-.>.(   ",
"  k k k k k k k k G ' G m m M M m M M M M M n O.%X$X$X$X$XO.B Z Z * n.$X$X$X$XoX .3 4  .4 ~ ^ 4 ^ ^ ^ ^ ^ 6 -.! ! ! >.-.! -.!   ",
"  k j k j k k D G k g g m m m m N m N M N N x ~.$X$X$X$X~.% Z Z Z Z V '.$X$X$X$XI.= 4 4 4 4 4 ~ 4 4 ^ ^ ^ ^ ^ -.! -.! >.! >.(   ",
"  j k j j k g m m k m m m m m m m m m N N e &.$X$X$X$X$XO.z C C B z & l.$X$X$X$X+X .< 4 T T 4 ~ 4 ~ ~ ^ ^ ~ ^ ^ ^ ^ 6.-.^ ! ~   ",
"  j j g k k j k g g g g m g m m m N m N N e /.$X$X$X$XY.. x n Z ..z.D.E.%X$X$X$X$X!.T 2 = 2 4 4 ^ 4 ~ ~ ^ ^ ^ ~ ^ ^ 4 4 ^ ( (   ",
"  j j j ` g j g g k g m g g m b m b m b e %.$X$X$X$X%Xn.m.P.~.}.%X$X$X$X$X$X$X$X$X$XoX`.T.c.~ < 4 4 ~ ~ ^ ~ ~ ^ ~ ^ ^ 6 ( ~ Q   ",
"  j j j j j j g g g g g m g s m m s m s e /.$X$X$X$X$X%X$X$X$X$X$X$X$X$X$X$X$X$X$X$X$X$X$X$XOXT.t.4 ~ ~ ~ ~ ~ ~ ~ 4 4 4 Q ~ Q   ",
"  d j j j f g f g g g g g s g m m s m O %.$X$X$X$X$X$X$X$X$X$X$X$X$X$X$X$X$X$X%XXX`.Q.J.F.M.M.C.c.4 4 4 ~ 4 ~ 4 ~ ~ Q ~ Q ~ U   ",
"  a j j g j j g g g f g g s s s p p p p ].$X$X$X$X$X$X$X$X$X$X$X$X$X$X#X`.U.b.@.Y > & - - = < , 2 4 4 4 4 4 4 4 U Q ~ ~ Q Q I   ",
"    j f f f f g f g g g g s s g h p w *.$X$X$X$X$X$X$X$X$X$X$X$XoXQ.n...: % % > - > C.{.#.= Y Y 3 4 Y 4 4 T 4 4 T Q ~ U U ~     ",
"    j y f f f f f f s f f s s s p s p [.$X$X$X$X$X$X$X$X$X$X(.n.] $ $ : B B C % @.`.$X$X).= 2 Y 3 Y 4 Y T T  .Y T T Q U U U     ",
"    y f f f f f a f s f s s s s p o =.$X$X$X$X$X$X$X$X@XY.+.# + b n n C > n $ n.#X$X$X$X$Xl.= 2 Y Y Y Y 3 U U U U U U U U I     ",
"    t j y f f a f f s a a a a s i f }.$X$X$X$X$X$X+XH.' O @ b N n N n n : $ A.$X$X$X$X$X$X)., , Y Y 3 Y Y U 3 U U U U U U =     ",
"      a f f f f a f a a a a a a X Z.$X$X$X$X$X@XK.' o # b b b b n b n N $ m.$X$X$X$X$X$X$X$Xl.- , Y 2 Y Y Y Y Y U I Y I I       ",
"      y y y a y y a a a a a a r g }.$X$X$X%XY.' o @ p p p b b m N n b ; +.oX$X$X$X$X$X$X$X$X'.> , Y V Y Y , 2 I I I I Y I       ",
"        y y a y t a y t t i t X Z.$X$X$X/.{ o i s s # # # ' p b b b ; ; W.$X$X$X$X$X$X$X$X$X$Xb.> , 2 ] I I V I I I I I         ",
"        y y y y t t t a t t u ` OX$XOX=.r o p i # s ` # # p b b b b N b n O.H.}.%X$X$X$X$X$X$X'.> , , 2 V V I V v V I V         ",
"          ` t t t t t t t i X L.$XW.` X r i i i @ i s # s s p b b b b N ; ; + ; +.D._.#X$X$X$X$Xn.% , , V V V V V V I           ",
"          r y t t t t t t u [ }.*.X r a i i i i ` # s s p p # # p b b b N ; : : $ $ : ..A.^.@X$X X, , ] V V V V V V B           ",
"            y y t y u ` u u $.` X t a a a i i i i p p s ` @ # ` p b p b b n n n n n n : $ % } n.).b.> > , > , C , Z             ",
"            u y y y y y y y u ` a t a t a a a i i i i i # s s # p p b b ` b b n n n n n > : % $ % Z > > ] > > , , :             ",
"              t y u y y y y y y t a a t a a a a s i i i ` # @ ` p b b b b b b b N N : : : n B B : > > C C > > > >               ",
"                y ` y y y y y y y a t a a t a i a i i s @ s # # p p p p b b b b n n N n n n n n C : C > > > C C                 ",
"                  y y y y y y y a y a t t a a a a i i i i s ` # p p p b p b b b b b n n n n n n n C n C : : n                   ",
"                    y ` y y y y y y y a a t a a a a a i @ s @ @ p p p p b b b b b b b b b n n : n : : : : C                     ",
"                      ` y y y y y a y a a t t a a a a i ` i s ` p p p b p p p b b b b n b : b n b n : C :                       ",
"                        y y y y y y y t y a a a a a a i @ i i # p p p p p b p b b b b b b b n n ; n n ;                         ",
"                          j ` y y y y y y a t a a a a a i i i p a p p p p p p p # b b b ; b b $ b ; ;                           ",
"                            u y y y y y t y y a a a a i a i i i a p p p p p p p p b # b ; p b b b ;                             ",
"                                y y ` y a t a a a a a a i a i i p p a p p p p p p p p p p p b #                                 ",
"                                    u y y y y a t a a a a a r i a p @ a p p p p p p ; b b #                                     ",
"                                        t y y a a @ t t a a i i i i i a @ @ p @ p p p @                                         ",
"                                            r t t ` t t a a a i i a i a @ ` p p # @                                             ",
"                                                    @ t a a a ` a a ` @ a a                                                     ",
"                                                                                                                                "
};
