/* XPM */
static char *_45497613ddb46cba74f0ac8f7576c16vmkeJxuFdfw5Qlp2[] = {
/* columns rows colors chars-per-pixel */
"32 32 159 2 ",
"   c None",
".  c #272B7D",
"X  c #2C2B7E",
"o  c #322C7E",
"O  c #3C2C7C",
"+  c #38317D",
"@  c #411E71",
"#  c #4A2578",
"$  c #432C7B",
"%  c #492C7C",
"&  c #562675",
"*  c #542C7A",
"=  c #592F7A",
"-  c #43327F",
";  c #4A307C",
":  c #54327E",
">  c #5C337E",
",  c #632F7A",
"<  c #6B2E7C",
"1  c #752F7D",
"2  c #66357E",
"3  c #6A327C",
"4  c #6E387E",
"5  c #72387F",
"6  c #9B3F7D",
"7  c #95407F",
"8  c #9D427E",
"9  c #A2437E",
"0  c #3C2E82",
"q  c #273181",
"w  c #2C3684",
"e  c #2D3986",
"r  c #2D3C89",
"t  c #353684",
"y  c #3B3683",
"u  c #323986",
"i  c #343B8B",
"p  c #3B3A8B",
"a  c #3C3592",
"s  c #363B92",
"d  c #3B3A92",
"f  c #442E83",
"g  c #4C2F84",
"h  c #502D82",
"j  c #5A2D83",
"k  c #433682",
"l  c #4B3581",
"z  c #453789",
"x  c #43398C",
"c  c #4C398D",
"v  c #543582",
"b  c #5C3581",
"n  c #55398D",
"m  c #5D3A8D",
"M  c #443391",
"N  c #4E3795",
"B  c #443993",
"V  c #4C3993",
"C  c #533993",
"Z  c #5B3992",
"A  c #682F81",
"S  c #643682",
"D  c #6B3682",
"F  c #643880",
"G  c #6B3981",
"H  c #643A8E",
"J  c #6C3B8D",
"K  c #743580",
"L  c #743A82",
"P  c #7C3B82",
"I  c #733C8C",
"U  c #7B3D8A",
"Y  c #643A91",
"T  c #683A91",
"R  c #434C92",
"E  c #595496",
"W  c #69478E",
"Q  c #664A8F",
"!  c #764385",
"~  c #754688",
"^  c #665193",
"/  c #6B5694",
"(  c #675C9A",
")  c #7E5496",
"_  c #77569B",
"`  c #745C9F",
"'  c #7B5D98",
"]  c #6465A0",
"[  c #7362A2",
"{  c #726CA6",
"}  c #7F68A0",
"|  c #7577AB",
" . c #797EB0",
".. c #843D83",
"X. c #8B3E83",
"o. c #833F89",
"O. c #943F85",
"+. c #9D3F81",
"@. c #933F88",
"#. c #8D4082",
"$. c #824A8F",
"%. c #88498D",
"&. c #964181",
"*. c #924182",
"=. c #994281",
"-. c #9D4281",
";. c #994085",
":. c #9E4186",
">. c #834D91",
",. c #805393",
"<. c #A34380",
"1. c #A14382",
"2. c #A54382",
"3. c #A54481",
"4. c #A24286",
"5. c #A54386",
"6. c #89669D",
"7. c #8669A0",
"8. c #8C70A4",
"9. c #927CAC",
"0. c #9F7FAC",
"q. c #9486B4",
"w. c #9989B5",
"e. c #978CB8",
"r. c #9D8FB9",
"t. c #A58FBB",
"y. c #A492BC",
"u. c #9A9EC3",
"i. c #AF9AC2",
"p. c #BB9FC4",
"a. c #BEA6C8",
"s. c #BCACCC",
"d. c #B4B0CF",
"f. c #B6B4D1",
"g. c #BFB7D3",
"h. c #C0A3C6",
"j. c #C4AFCD",
"k. c #C0B3D2",
"l. c #C4BBD7",
"z. c #CABBD4",
"x. c #C9C4DC",
"c. c #CCC9DE",
"v. c #D0C5DA",
"b. c #D3CBDE",
"n. c #D0CFE1",
"m. c #D5D2E3",
"M. c #DAD5E5",
"N. c #DEDAE9",
"B. c #E2DEEA",
"V. c #E0E1ED",
"C. c #ECE6F0",
"Z. c #EEEAF2",
"A. c #F5F1F7",
"S. c #F4F1F6",
"D. c #F7F5F8",
"F. c #F9F6FA",
"G. c #F9F7FA",
"H. c white",
"J. c #FEFEFE",
/* pixels */
"                          6 8 9 9 9 9                           ",
"                    ..6 7 7 8 9 9 9 9 9 <.8                     ",
"                I o.o.@.*.&.8 8 9 9 3.3.3.5.5.-.                ",
"              J I U o.o.X.#.&.8 9 9 9 3.3.<.3.5.4.              ",
"            Y T J I I ~ o...X.O.=.-.8 <.<.<.<.4.4.4.            ",
"          Z Y Y Y J I I U o.....*.&.=.8 8 <.<.<.4.4.4.          ",
"        C Z Z Z Y H J J I U o.....#.&.&.=.8 -.-.:.:.4.:.        ",
"      N C C Z Z Y Y H J J I I >.%...X.*.&.=.=.-.-.-.:.:.O.      ",
"    M N C C C Z m m H H J J A j.a.1 ..X.#.7 7 #.=.;.=.;.;...    ",
"    B N V V C C Z m m H Y S ) F.S.$.P ..! #.7 #.&.&.&.O.@.@.    ",
"  a B N V V C C C n m m H j j.J.J.p.< P ....7 7 #.*.*.O.@.@...  ",
"  B B B V V V n n n n m v _ F.J.J.S.) G #.5 P #.#.#.X.O.X.@...  ",
"  B B B B B V c c n n n * g.J.D.D.J.a.< L P ! P ....X.X.X.@...  ",
"a d d B B B x V c c n g ` G.J.t.i.J.D.,.3 L 5 6 6 K 6 ......X.  ",
"s d d d B B B c c c c f l.J.Z.m W A.J.j.2 5 ! 5 G 5 ........o.K ",
"s d d B B B x x z c f [ J.J.y.% # y.J.G.,.3 5 L 5 P P P ..P U P ",
"s d d p p x x x x x k x.J.N.l v Q 9.J.J.z.G 2 < 4 5 5 ! P P P K ",
"s s s s p p p x x 0 [ J.J.M.l.B.G.J.J.J.J.Z.z.0.! 5 L L P P L D ",
"i s s p p p p k y 0 c.J.J.J.J.J.J.G.M.s.q.6.6.6.~ 5 L L L L K   ",
"  i i i i p t p q { J.J.J.J.J.c.q.^ ; @ ' z.' & 2 4 4 G D G D   ",
"  i i u i i t u t n.J.J.J.d.( + O % $ w.J.J.v.> S S S G D D S   ",
"  e r i u u u X | J.J.f.E o O k k $ q.J.J.J.J.6.> F S S S D b   ",
"    r r r e w u V.m.] X t t y k k k e.m.J.J.J.b.: > b S S b     ",
"    w r e e q  .u.u X t y y y y k k O l / r.c.J.9.* b b b *     ",
"      e r r e R q w u u y t y y y k k k ; $ ; / } : : b :       ",
"        r r r e r e u u u t y y y k k k - l l - ; : v v         ",
"          r r r r u r u u t y y p k k k k ; l ; ; l v           ",
"            r r r u e u u t t y y y y k k k - l - ;             ",
"              r r r e u u u u y u u k + k k k l k               ",
"                e r r u u u u t y y y y y + y +                 ",
"                    e e u e u u + u u y y +                     ",
"                          e u u u u y                           "
};
