/* XPM */
static char *a4e8ca1b438243809947992b808270ccRk9UJCvzUZpvq6RK[] = {
/* columns rows colors chars-per-pixel */
"16 16 186 2 ",
"   c None",
".  c #2C287B",
"X  c #282C7E",
"o  c #372275",
"O  c #3C2C7B",
"+  c #412B79",
"@  c #572977",
"#  c #45307E",
"$  c #49327F",
"%  c #53337F",
"&  c #5A317D",
"*  c #5B337F",
"=  c #6B2E79",
"-  c #6B3079",
";  c #6B387F",
":  c #7A327C",
">  c #97407C",
",  c #9A427F",
"<  c #9C427E",
"1  c #9F437F",
"2  c #A0427D",
"3  c #A2417E",
"4  c #A1437E",
"5  c #A3437E",
"6  c #A2437F",
"7  c #362A81",
"8  c #2C3282",
"9  c #2B3483",
"0  c #293684",
"q  c #2F3884",
"w  c #2C3986",
"e  c #2B3B89",
"r  c #2C3A89",
"t  c #2E3A88",
"y  c #2C3C8A",
"u  c #363482",
"i  c #353385",
"p  c #353784",
"a  c #3A3180",
"s  c #383783",
"d  c #3F3581",
"f  c #3C3683",
"g  c #3C3783",
"h  c #3F3783",
"j  c #393784",
"k  c #3B3784",
"l  c #323885",
"z  c #333985",
"x  c #313A86",
"c  c #303A87",
"v  c #343885",
"b  c #373884",
"n  c #333A88",
"m  c #333C8A",
"M  c #33398D",
"N  c #373B8D",
"B  c #3A3A8B",
"V  c #3E3A8C",
"C  c #3B3793",
"Z  c #373B92",
"A  c #3A3B90",
"S  c #393A93",
"D  c #3D3A92",
"F  c #482B83",
"G  c #403380",
"H  c #423481",
"J  c #413782",
"K  c #443581",
"L  c #453488",
"P  c #413A8B",
"I  c #423A8F",
"U  c #463A8E",
"Y  c #4B398F",
"T  c #4F398D",
"R  c #57368A",
"E  c #55398E",
"W  c #483795",
"Q  c #463A91",
"!  c #413A94",
"~  c #463995",
"^  c #4B3993",
"/  c #503990",
"(  c #563A92",
")  c #513995",
"_  c #563995",
"`  c #5B3A90",
"'  c #5C3A93",
"]  c #602E84",
"[  c #693480",
"{  c #683782",
"}  c #673881",
"|  c #6E3880",
" . c #623A8E",
".. c #643E8D",
"X. c #6A3B8D",
"o. c #6C3B8F",
"O. c #713982",
"+. c #773A81",
"@. c #753883",
"#. c #753C81",
"$. c #703F85",
"%. c #773D85",
"&. c #7B3B80",
"*. c #793A83",
"=. c #7D3A80",
"-. c #7F3882",
";. c #7D3D81",
":. c #7C3984",
">. c #733B8B",
",. c #753D8D",
"<. c #783B8A",
"1. c #7D3F89",
"2. c #633A90",
"3. c #643991",
"4. c #37428D",
"5. c #44458E",
"6. c #4E428A",
"7. c #4B468F",
"8. c #5E468B",
"9. c #584390",
"0. c #495094",
"q. c #60458A",
"w. c #6D4D8E",
"e. c #813C81",
"r. c #843E80",
"t. c #813C84",
"y. c #873F85",
"u. c #853E87",
"i. c #893E81",
"p. c #893F81",
"a. c #8B3E82",
"s. c #8A3E85",
"d. c #803E89",
"f. c #913F83",
"g. c #923D85",
"h. c #923F87",
"j. c #8D4082",
"k. c #8F4082",
"l. c #914081",
"z. c #924182",
"x. c #944180",
"c. c #964180",
"v. c #984182",
"b. c #9D4280",
"n. c #9E4283",
"m. c #994185",
"M. c #9E4286",
"N. c #885E98",
"B. c #A34283",
"V. c #A34383",
"C. c #A54480",
"Z. c #A54482",
"A. c #A34286",
"S. c #86649C",
"D. c #8269A4",
"F. c #8873A7",
"G. c #8275A9",
"H. c #8971A8",
"J. c #8E8AB8",
"K. c #9687B4",
"L. c #9787B6",
"P. c #AC8DB8",
"I. c #B18BB7",
"U. c #A493BF",
"Y. c #AC90BC",
"T. c #A996BD",
"R. c #AC98BD",
"E. c #9A9DC3",
"W. c #A19AC3",
"Q. c #A9A9CA",
"!. c #BEB6D1",
"~. c #C1AECC",
"^. c #C3B7D3",
"/. c #C0B8D3",
"(. c #DED8E6",
"). c #EFE8F1",
"_. c #EEE9F1",
"`. c #EDE9F2",
"'. c #EDEBF4",
"]. c #EDEDF4",
"[. c #F0EAF2",
"{. c #F1EEF5",
"}. c #F1F0F5",
"|. c #F2F1F7",
" X c #F4F2F7",
".X c white",
/* pixels */
"            > 2 2 5             ",
"        <.u.z.< 2 C.Z.V.        ",
"      3.o.,.d.a.v.< 6 V.A.      ",
"    _ ' 2.X.>.1.s.z., b.b.M.    ",
"  W ) ( `  .] Y.I.: k.> m.m.g.  ",
"  ~ ^ / E R ..{.).w.: a.k.f.g.  ",
"C ! Q Y T F U._.).I.= : e.a.s.-.",
"S D I U L 9.'.D.H.).w.- ;.e.t.:.",
"A S V P 7 W.}.L.^..X!.N.: #.*.@.",
"M N B i 7.}..X}.^.F.T.S.; ; O.[ ",
"  m m X Q.].J.6.o K..XR.@ } {   ",
"  q 0 0.E.5.. a # G.!.(.w.& *   ",
"    y 4.0 8 b k h O + 8.q.%     ",
"      y t c b b h J K # $       ",
"        r l l p b f d G         ",
"            q l p u             "
};
